<?xml version="1.0" encoding="UTF-8"?><svg id="Layer_1" xmlns="http://www.w3.org/2000/svg" viewBox="0 0 567 567"><defs><style>.cls-1{fill:#fff;}.cls-2{fill:#ed0037;}.cls-3{fill:#286cfc;}</style></defs><g id="Ringe"><path class="cls-3" d="M283.5,0C126.9,0,0,126.9,0,283.5s126.9,283.5,283.5,283.5,283.5-126.9,283.5-283.5S440,0,283.5,0Z"/><path class="cls-1" d="M283.5,14.2C134.7,14.2,14.2,134.7,14.2,283.5s120.6,269.3,269.3,269.3,269.3-120.6,269.3-269.3S432.2,14.2,283.5,14.2Z"/><path class="cls-2" d="M283.5,26.9C141.8,26.9,26.9,141.8,26.9,283.5s114.9,256.5,256.5,256.5,256.5-114.9,256.5-256.5S425.1,26.9,283.5,26.9ZM283.5,443.6c-88.5,0-160.2-71.7-160.2-160.2s71.7-160.2,160.2-160.2,160.2,71.7,160.2,160.2-71.7,160.2-160.2,160.2h0Z"/><path class="cls-3" d="M142.7,327c6.7,21.7,18,40.8,32.5,56.4v-66.5l-37.6-54.9c-3.1,21.1-1.7,43.2,5.1,64.9M218.5,379.7v-76.1l-43-62.8v-57.6c-8,8.6-14.8,18.1-20.5,28.2l20.2,29.5v76.1l43,62.8v35.8c10.4,5.2,21.5,9.1,32.9,11.7l-32.5-47.5-.1-.1ZM261.8,290.2l43,62.8v76.1l-43-62.8v-76.1l-43-62.8v-76.1l43,62.8v76.1ZM305.1,276.8l-43-62.8v-76.1l43,62.8v76.1l43,62.8v76.1l-43-62.8v-76.1ZM239.9,142.7c-22,6.8-41.2,18.3-56.9,32.9l35.5,51.9v76.1l43,62.8v62.9c21.3,3.2,43.6,1.8,65.6-5s41.2-18.3,56.9-32.9l-35.5-51.9v-76.1l-43-62.8v-62.9c-21.3-3.2-43.6-1.8-65.6,5M391.8,326.1v-76.1l-43-62.8v-35.8c-10.4-5.2-21.5-9.1-32.9-11.7l32.5,47.5v76.1l43,62.8v57.6c8-8.6,14.8-18.1,20.5-28.2l-20.2-29.5.1.1ZM424.3,239.9c-6.7-21.7-18-40.8-32.5-56.4v66.5l37.6,54.9c3.1-21.1,1.7-43.2-5.1-64.9"/></g><g id="Schrift"><path class="cls-1" d="M112,336.5l7.3,15.5-11.8,22.4c-1.8,3.3-3.3,6.1-3.3,6.1l.2.3s3.1.2,6.9.5l25.2,2.3,9,14.5-54.5,31.8-8.7-14,22.8-13.3c5.3-3.1,9.3-5.3,9.3-5.3l-.2-.3s-2.8-.2-8.5-1.1l-23.2-3.5-.2-.3,9.8-21.3c2.4-5.3,3.8-7.7,3.8-7.7l-.2-.3s-4,2.2-9.5,5l-23.6,11.9-7-14.9,56.4-28.3h0Z"/><path class="cls-1" d="M153.7,405.2l12.6,11.2-25.2,30c-4.1,5-3.9,10.2,2.3,15.2,6.3,4.9,11.4,3.9,15.3-1.3l23.3-31.6,13.8,9.6-23.9,32.3c-10.9,14.8-25.1,11.9-37.4,2.3-12.3-9.7-18.4-22.8-6.6-36.9l25.8-30.8h0ZM178.8,425.7l-15.5,10.8-.3-.2,6.9-17.6,8.9,7h0Z"/><path class="cls-1" d="M205.4,443.8l16.4,6,9.3,31.7c2,6.8,2.8,10.5,2.8,10.5h.5c0,.1,1.1-4.6,2.6-10.3l6.7-25.2,16,3.8-16.3,61-17-4.1-10.6-33.1c-2-6.4-2.9-10.5-2.9-10.5h-.5c0-.1-1.4,4.8-3.2,10.2l-8.6,25.7-15.4-5.7,20.1-59.8.1-.2Z"/><path class="cls-1" d="M328.2,498.4c.3,15-9,25.2-26.9,26.5-16.7,1.1-32.4-6.5-33.3-30.9-.9-24.7,12.8-34,28.8-35.1,17.4-1.2,27.5,8.5,29.2,21.7l-16.9,1.1c-1.6-5.7-4.6-9.1-12.1-8.6-7,.5-11.8,6.9-11.3,19.6.6,13.3,6.1,18.4,13.9,17.9s11.2-4.3,11.6-11.1l17.1-1.2-.1.1Z"/><path class="cls-1" d="M332,454.8l15.7-6,8.9,21.3,19.6-8.9-10.2-20.7,14.8-7.9,28,56.6-14.8,7.9-11.1-22.5-20.5,9.3,9.7,23.1-15.7,6-24.3-58.2h-.1Z"/><path class="cls-1" d="M390.6,425.2l30.2-28.9,9.7,9.5-18.9,18.1,7.2,8,18.3-17.6,9.5,9.3-18.9,18.1,7.9,8.8,21.3-20.4,9.7,9.5-33.8,32.4-42.2-46.9v.1Z"/><path class="cls-1" d="M428.4,387.3l8.7-15.2,32.8-3.8c7.1-.8,10.8-1,10.8-1l.2-.4s-4.5-1.9-9.9-4.4l-23.7-10.9,6.4-15.2,57.3,26.4-6.9,16-34.4,4.8c-6.7.9-10.8,1.1-10.8,1.1l-.2.4s4.6,2.2,9.6,4.9l23.8,12.8-8.2,14.3-55.6-29.9.1.1Z"/><path class="cls-1" d="M67.4,178.3l12.7,5-10.1,28,11.8,3.9,9.5-26.2,12.3,4.9-9.2,25.4,22.1,7.2-4.8,16.1-60.5-19.7,16.1-44.7.1.1Z"/><path class="cls-1" d="M144.8,136.7c10.9,9.9,12.8,23.4,1.9,37.2-10,12.6-25.3,18.7-45.2,3.9-19.6-14.5-17-31.7-6.6-44.9,11-13.9,25.1-15.1,36-7.3l-10.5,13.3c-5.1-2.9-9.9-2.6-14.7,3.5-4.8,6.1-3.7,13.6,6.9,21.5,10.2,7.6,18.1,7.3,22.5,1.7,4.7-6,3.8-10.8-.8-15.6l10.6-13.4-.1.1Z"/><path class="cls-1" d="M186.2,65.3c11.2-5.2,22.1-6.3,26.9,5.1,3.9,9.3,1.4,13.4-3.4,17.5l.2.4c5.2-1.2,12.2-1,16.6,9.4,5.3,12.5-2.8,19.8-14,24.9l-23.6,10.9-28.3-56.4s25.6-11.8,25.6-11.8ZM195.7,88.1c4.4-2,5.6-4.1,3.9-8.3-1.7-4.1-4.6-4.4-8.8-2.4l-9.4,4.4,5.3,10.5,9-4.2ZM206.4,111.2c4.8-2.2,6.1-4.1,4.1-8.9-1.9-4.5-5.2-4.6-10.1-2.4l-8.1,3.8,5.7,11.4,8.4-3.9h0Z"/><path class="cls-1" d="M301.1,106.7h-17.9l-5.1-11.3-21.7,1.9-3.1,12-17.6,3.1,17.5-66,19.5-1.7,28.5,62h-.1ZM273.1,83.2l-5.4-12.3c-1.9-4.2-3.3-7.9-3.3-7.9h-.3s-.7,3.9-1.9,8.4l-3.2,13,14.1-1.2h0Z"/><path class="cls-1" d="M317,88.2l-14.7-44.8,18.9,3.6,5.7,19c1.1,3.6,2,7.5,2,7.5h.3s2.5-3,4.9-5.9l13.1-14.9,18.7,4.6-31.9,34.7-4.9,20.9-16.5-3.6,4.2-21.1h.2Z"/><path class="cls-1" d="M378.7,62.7l39.7,21.8-6.9,11.7-24.5-13.5-4.9,9.6,22.6,12.4-6.8,11.4-21.9-12-5.4,10.5,23.9,13.1-6.9,11.7-37.5-20.6,28.6-56.3v.2Z"/><path class="cls-1" d="M440.4,101.6l19.3,20.6c9.9,10.6,12.2,20.7.5,31-7.5,6.6-13,8.4-19.6,5.8l-10.1,25.4-11.9-14.6,9.2-20.8-5.5-5.9-14.8,14.8-12.2-11.6,45.1-44.9v.2ZM431.7,133.9l6.5,7c3.6,3.9,6.7,4,10.7.4,4-3.5,3.9-6.9.3-10.7l-6.9-7.3-10.7,10.7.1-.1Z"/><path class="cls-1" d="M456.3,242.6l-5.8-16.5,18.6-27.2c4-5.8,6.3-8.8,6.3-8.8l-.2-.5s-4.3,2.2-9.8,4.6l-23.8,10.8-7.2-14.8,57.5-26,7.6,15.7-18.9,29.1c-3.6,5.5-6.3,8.9-6.3,8.9l.2.5s4.7-2,10-4.1l25.3-9.6,5.4,15.6-59,22.3h.1Z"/></g></svg>