<?xml version="1.0" encoding="UTF-8" standalone="no"?><svg version="1.1" id="Livello_1" x="0" y="0" width="519.589" height="798.734" xml:space="preserve" xmlns="http://www.w3.org/2000/svg"><style type="text/css" id="style5705">.st1{fill:#fefefd}.st2{fill:#a21c26}</style><g id="layer1" transform="scale(.64326)"><path d="M403.7 1c-11 0-22 .7-32.9 2.1-38.8 4.7-76.2 18.1-109.9 37.6-55.3 32.1-100.3 79.5-136 132C80.3 238.6 49.4 313.1 29.4 390c-15.1 58.7-24 119.1-27 179.7-.8 11.2-.7 22.4-1.4 33.6v32.8c.9 25.9 1.8 51.9 4.4 77.7 4.4 45.6 12.1 91 23.4 135.4 17.4 67.7 43.1 133.5 79.3 193.5 23.6 39.1 51.6 75.7 84.8 107.1 25.9 24.5 55.1 45.8 87.2 61.5 35.5 17.6 74.8 27.7 114.4 29.4h18.1c40.1-1.6 79.7-11.8 115.6-29.7 29.8-14.6 57.1-34.1 81.6-56.5 53.3-49 93.6-110.8 123.9-176.3 39.6-86.6 61.7-180.7 69.7-275.5 5.6-69.6 4.3-139.9-4.9-209.1-10.9-81-32.4-161-67.1-235.1-16.9-36-36.9-70.6-60.5-102.7-20.9-28.4-44.5-54.9-71.4-77.7-26.2-22.4-55.5-41.3-87.2-54.7C478.1 8.8 440.9 1 403.7 1Z" id="path5707" style="fill:#19428e;fill-opacity:1;stroke:#ececec;stroke-width:2;stroke-miterlimit:10"/><g id="g5715"><path class="st1" d="M430.1 92.4c2.2-.8 4.6-.3 6.7.3 11.4 3.7 23 6.6 34 11.3 7.2 3.1 14.4 7 19.9 12.7.1-13.4.1-26.8 0-40.2-18.2-7.2-36.7-14.1-55.9-18.2-7.2-1.7-14.6-1.5-21.9-1.3-10.6.2-21.2 1.5-31.8 2.5 3.6 6.5 7.5 13.4 7.6 21.1v187c.7 8.8-4.6 16.4-8.8 23.6 18.5.1 37 0 55.5 0-4.4-7.1-7.5-15.2-7.7-23.7 0-24.6.1-49.2 0-73.8 7.8-.7 15.6-.3 23.3-.3 6 0 11.3 3.3 14.8 8V154c-5.9 2.9-12 5.9-18.7 5.7-6.5 0-13-.1-19.6 0-.3-19.7 0-39.5-.2-59.2 0-2.7-.2-6.5 2.8-8.1z" id="path5709" style="fill:#fefefd;fill-opacity:1"/><path class="st1" d="M336 174.9c12.6-17.1 20.1-39 16-60.2-2-10.2-8.4-19.3-17-24.9-10.8-7.1-24.4-9.4-37-7.1-9.2 1.7-17.1 7-24.7 12.2-18.6 13.3-35.5 28.8-52.3 44.2 6.1.7 9.5 6.8 9.7 12.5.5 17.3-.2 34.7.3 52-.2 13-.3 26 0 38.9-.6 9 .4 17.9-.3 26.8-.3 8.5-4 16.5-9.9 22.6 30.7.2 61.4.3 92.1.4 7.4 0 14.4-2.8 21.1-5.7 17-7.8 32-21.8 37.3-40.1 4-14.3 3.3-30.1-2.4-43.8-5.7-13.7-18.4-24.1-32.9-27.8Zm-69.5-31.8c7.2-7.5 15.1-14.7 24.6-19.1 4.2-2 9.2-2.9 13.8-1.5 5.4 2.2 8.5 7.9 9.6 13.3 1.4 5.8-.3 12-3.4 17-4.9 8-12.3 13.9-20 19.1-7.8 5-16 9.4-24.6 12.6v-41.4zm59.7 106c-10.8 6.6-23.8 7.8-36.2 8.9-7.5.2-15 .4-22.5-.3v-33c9.7-8.8 21.8-15.3 34.6-18 8.5-1.6 18.3-1.2 25 4.9 5.7 5.1 8.3 12.7 8.9 20.1.6 7.1-3.8 13.8-9.8 17.4z" id="path5711" style="fill:#fefefd;fill-opacity:1"/><path class="st1" d="M575.8 243c-9 6.6-20.5 12-31.9 9.4-8.4-1.5-15.8-7.2-19.7-14.8-5.7-10.8-6.2-23.4-5.7-35.3.7-11.3 3-23 9.8-32.3 6.5-9.2 19-14.4 29.9-10.6 5.2 1.6 9.5 5.2 13.2 9l.6-.4c4.7-8.2 8.9-16.6 13.6-24.8.5-1.1 1.6-2.6.5-3.7-6.9-9.2-17.7-15.3-29.1-17.2-10.5-2-21.5-.1-31.2 4.3-16.6 7.3-29.6 21.5-36.8 38-8.4 19.1-10 40.6-7.5 61.2 2 16.1 7.7 32.3 19 44.3 11.8 12.6 29.3 19.4 46.5 19.1 14.5 0 29.8-4.6 39.9-15.5-3.5-10.3-7.6-20.4-11.1-30.7z" id="path5713" style="fill:#fefefd;fill-opacity:1"/></g><path class="st1" d="M707.3 274.7c5 12.5 10.8 24.7 15.5 37.4 31.7 81.5 48.7 168.4 53.6 255.6 1.7 26.8 1.5 53.8 1.1 80.6H666.3V367.7c.2-12.2-.3-24.4.2-36.6 2.2-3.3 5.3-5.9 7.8-8.9 11.8-13.4 22.6-27.8 32.2-42.9 1.1-1.4 1.6-3 .8-4.6z" id="path5717"/><path style="fill:#ee293b;fill-opacity:1" class="st2" d="M88.2 304c3-7.2 5.8-14.4 9.2-21.4 3.7 5.8 7.8 11.3 11.7 16.9 2.1 3.3.8 7.5 1.1 11.3-.1 225.1.1 450.2-.1 675.4-6.8-12.5-12.3-25.6-18-38.7-35.6-84.8-54.7-176.1-60.5-267.8-.4-13.3-1.6-26.6-1.5-39.9 0-21.7-.4-43.4.8-65.1C35.6 482.2 53.7 390 88.2 304Z" id="path5719"/><g id="g5729"><path class="st1" d="M443.5 318.1c-5.5-5.4-13.5-8.2-21.1-6.8-6.7 1.3-12.6 5.7-16.6 11.1-6.3 8.4-9.2 18.8-9.5 29.2-.3 10.9 2.2 22.2 8.5 31.4 4.3 6.1 10.6 11.5 18.2 12.7 8.4 1.6 16.9-2.4 22.5-8.6 8.6-9.6 12-22.8 11.7-35.4-.6-12.2-4.5-25-13.7-33.6zm-9.3 54.8c-2.2 3-6 5.3-9.8 4.3-4.5-1.3-7.2-5.5-9-9.5-4-9.6-3.8-20.7.4-30.2 1.8-3.9 4.9-7.8 9.3-8.8 3.4-.7 6.7 1.5 8.8 4 4.6 5.6 5.9 13 6.3 20-.2 7-1.6 14.4-6 20.2z" id="path5721" style="fill:#fefefd;fill-opacity:1"/><path class="st1" d="M523.1 335.7c-1.8-10.2-9.2-19.1-19-22.5-6.9-2.9-14.7-1.6-21.5.9-7.1 2.7-12.4 9-13.9 16.4-1.2 7.5-.9 16.1 4.2 22.1 6.1 7.5 16.4 9.6 25.6 9.7-1.4 3.3-3.6 6.5-6.9 8.1-5.9 3.1-12.8 2.2-19.1 1.4V383c8.9 3.4 19.2 3.1 27.9-.8 9.8-4.2 17.5-12.7 20.9-22.7 3-7.5 3-15.9 1.8-23.8zm-17.5 4.1c-.6 6.8-9.2 11.6-14.8 7.1-7-4.8-5.5-17 2.6-19.7 7.3-2.3 13.9 5.7 12.2 12.6z" id="path5723" style="fill:#fefefd;fill-opacity:1"/><path class="st1" d="M371.3 319.3c-8.8-8.6-23.3-9.4-33.5-3-8.7 5.1-14.2 15.3-13.5 25.4-.1 9.8 4.6 20.8 14.4 24.2 7.5 2.3 15.4-.2 22.8-1.8.2 5.3-2.1 11.3-7.6 13-8.8 2.8-17.6-1.9-25.6-5.3.1 4.4-.4 8.9.2 13.2 6.7 5 15 7.8 23.4 7.5 10 .1 19.4-6 24.7-14.3 4.8-7.6 6.4-16.7 6.1-25.5.1-11.9-2.6-24.8-11.4-33.4zm-12.2 29.6c-3.2 3.4-9 4.5-12.7 1.4-7.1-5.8-6.2-19.8 3-23 4.3-1.3 9.4.3 11.5 4.4 2.8 5.3 3.2 13-1.8 17.2z" id="path5725" style="fill:#fefefd;fill-opacity:1"/><path class="st1" d="M278.6 323.1v10.4c4.4.1 8.9.1 13-1.6v45c6.6 2.6 13.2 5.4 19.9 7.8v-70.4c-5.6-.2-11.2-.7-16.8-1.1-2.7 6.5-9.5 9.5-16.1 9.9z" id="path5727" style="fill:#fefefd;fill-opacity:1"/></g><path style="fill:#ee293b;fill-opacity:1" class="st2" d="M551.8 411.5c32.5-14.3 62.8-33.5 89.6-56.8.2 106.2 0 212.4.1 318.6h135c-1.7 31.6-5.4 63.1-10 94.5h-125v210.8c.1 32.8-.2 65.6.1 98.5-26.4 33.7-57 64.7-92.8 88.5.1-132.6 0-265.2.1-397.8H417.3v-94.5h131.6V414.5c-.4-1.7 1.7-2.3 2.9-3z" id="path5731"/><path style="fill:#ee293b;fill-opacity:1" class="st2" d="M211.3 391.5c32.6 19.3 68.1 33.6 104.9 42.1.1 253.9 0 507.8.1 761.7-39.4-14.8-74.6-39.2-105.1-68 .1-245.3 0-490.5.1-735.8z" id="path5733"/><path class="st1" d="M487.1 433.4c12.5-2.9 24.8-6.8 37.1-10.6v221.9c-.3 1.1.7 3.8-1.2 3.6-35.3.1-70.5 0-105.8.1V443c23.5-1.1 47-4.2 69.9-9.6z" id="path5735"/><path class="st1" d="M417.2 792.9c35.6 0 71.3-.1 106.9.1.1 129.2 0 258.4.1 387.5-33 17.6-69.6 29-107 30.9V792.9z" id="path5737"/><path class="st1" d="M666.4 792.9c31.8 0 63.7-.1 95.5 0-16.5 84.3-45.1 167-90.3 240.3-2.1 3.4-4.4 6.8-6.2 10.4 1.6-3.1.8-6.7 1-10.1V792.9z" id="path5739"/><path d="M403.7 31c32.7 0 66.1 6.9 96.7 20 27.6 11.7 54.3 28.5 79.4 49.9 23.4 19.9 45.8 44.3 66.7 72.6 21.4 29.1 40.7 62 57.5 97.7 31.8 68 53.5 144.2 64.6 226.4 8.7 65.2 10.3 133.3 4.8 202.7-8.3 96.9-30.8 186.2-67.1 265.5-31.5 68.3-70.8 124.4-116.8 166.6-23.8 21.7-48.8 39.1-74.5 51.7h-.2c-31.8 15.9-67.3 25-102.8 26.5h-16.8c-35.1-1.6-70.2-10.7-101.8-26.3h-.2c-27.8-13.6-54.7-32.6-79.8-56.4-29.1-27.5-55.9-61.4-79.7-100.8-32.8-54.4-58.3-116.8-75.9-185.4-10.7-42.1-18.4-86.1-22.7-130.9v-.2c-2.6-24.9-3.4-50.4-4.3-75.1V604c.3-5 .4-10 .5-14.7.2-6.1.3-11.9.7-17.4v-.8c3-59.6 11.9-118.1 26.2-173.7 20.5-78.8 51.2-148.8 91.3-208 36.9-54.4 79.3-95.7 126.2-122.9 31.1-18.1 65.2-29.8 98.5-33.8h.2c9.8-1.1 19.6-1.7 29.3-1.7m0-30c-11 0-22 .7-32.9 2.1-38.8 4.7-76.2 18.1-109.9 37.6-55.3 32.1-100.3 79.5-136 132C80.3 238.6 49.4 313.1 29.4 390c-15.1 58.7-24 119.1-27 179.7-.8 11.2-.7 22.4-1.4 33.6v32.8c.9 25.9 1.8 51.9 4.4 77.7 4.4 45.6 12.1 91 23.4 135.4 17.4 67.7 43.1 133.5 79.3 193.5 23.6 39.1 51.6 75.7 84.8 107.1 25.9 24.5 55.1 45.8 87.2 61.5 35.5 17.6 74.8 27.7 114.4 29.4h18.1c40.1-1.6 79.7-11.8 115.6-29.7 29.8-14.6 57.1-34.1 81.6-56.5 53.3-49 93.6-110.8 123.9-176.3 39.6-86.6 61.7-180.7 69.7-275.5 5.6-69.6 4.3-139.9-4.9-209.1-10.9-81-32.4-161-67.1-235.1-16.9-36-36.9-70.6-60.5-102.7-20.9-28.4-44.5-54.9-71.4-77.7-26.2-22.4-55.5-41.3-87.2-54.7C478.1 8.8 440.9 1 403.7 1Z" id="path5741" style="fill:#ecac00;fill-opacity:1"/></g></svg>